# xmcd
#
# Track frame offsets:
# 150
# 17696
# 35473
# 51418
# 69099
# 84825
# 97841
# 114756
# 133362
# 148161
# 165885
#
# Disc length: 2433 seconds
#
#
# Revision: 0
# Processed by: cddbd v1.5PL3 Copyright (c) Steve Scherf et al.
# Submitted via: FreeRIP 2.53 
#
DISCID=82097f0b
DTITLE=Vassar, Phil - Phil Vassar
DYEAR=1900
DGENRE=
TTITLE0=Carlene
TTITLE1=Just Another Day In Paradise
TTITLE2=That's When I Love You
TTITLE3=Rose Bouquet
TTITLE4=Joe and Rosalita
TTITLE5=Six Pack Summer
TTITLE6=Lucky As Me
TTITLE7=Like I Never Loved Before
TTITLE8=Didn't You Know She's Gone
TTITLE9=Somewhere In Between
TTITLE10=Drive Away
EXTD=
EXTT0=
EXTT1=
EXTT2=
EXTT3=
EXTT4=
EXTT5=
EXTT6=
EXTT7=
EXTT8=
EXTT9=
EXTT10=
PLAYORDER=
